<?xml version="1.0" standalone="no"?>
<!DOCTYPE svg PUBLIC "-//W3C//DTD SVG 20010904//EN"
 "http://www.w3.org/TR/2001/REC-SVG-20010904/DTD/svg10.dtd">
<svg version="1.0" xmlns="http://www.w3.org/2000/svg"
 width="500.000000pt" height="500.000000pt" viewBox="0 0 500.000000 500.000000"
 preserveAspectRatio="xMidYMid meet">

<g transform="translate(0.000000,500.000000) scale(0.100000,-0.100000)"
fill="#000000" stroke="none">
<path d="M400 3831 c0 -4 20 -11 45 -14 67 -10 100 -31 123 -79 11 -24 114
-352 228 -730 l207 -688 134 0 c133 0 133 0 128 23 -56 238 -118 463 -230 837
-75 250 -139 480 -142 511 -5 48 -2 59 18 83 26 29 77 45 147 46 23 0 42 5 42
10 0 6 -123 10 -350 10 -192 0 -350 -4 -350 -9z"/>
<path d="M2390 3830 c0 -5 24 -10 53 -10 75 -1 126 -15 155 -44 41 -40 33
-110 -46 -416 -62 -239 -71 -265 -90 -268 -25 -4 -30 -22 -7 -22 8 0 15 -6 15
-12 0 -7 -33 -141 -74 -298 -98 -382 -109 -430 -102 -437 3 -4 8 -4 11 -1 3 3
44 155 91 339 46 184 89 351 95 372 10 37 12 38 42 32 64 -14 99 -37 118 -79
17 -37 19 -71 19 -353 l0 -313 140 0 140 0 0 376 0 377 123 -6 c74 -3 140 -11
168 -21 96 -35 153 -110 186 -243 18 -76 23 -304 10 -416 l-9 -68 134 3 133 3
23 69 c66 196 24 415 -103 542 -61 61 -128 97 -233 126 -71 20 -108 22 -474
26 -237 2 -398 7 -398 13 0 5 34 140 75 301 49 189 84 306 101 335 30 52 86
82 152 83 23 0 42 5 42 10 0 6 -88 10 -245 10 -157 0 -245 -4 -245 -10z"/>
<path d="M1655 3808 c-14 -41 -365 -1451 -365 -1468 0 -74 36 50 167 579 81
330 151 597 154 593 4 -4 93 -270 199 -591 105 -322 193 -589 196 -593 8 -13
254 -10 254 3 0 34 -131 450 -294 933 -102 302 -186 551 -186 553 0 1 -27 3
-60 3 -40 0 -62 -4 -65 -12z"/>
<path d="M2668 1656 c-3 -159 -5 -177 -24 -203 -31 -42 -73 -62 -142 -69 -147
-16 -36 -24 313 -24 206 0 375 4 375 9 0 4 -30 11 -66 14 -83 8 -134 33 -156
78 -15 28 -18 62 -18 202 l0 167 -139 0 -139 0 -4 -174z"/>
</g>
</svg>
